<?xml version="1.0" encoding="utf-8"?>
<!-- Generator: Adobe Illustrator 22.0.1, SVG Export Plug-In . SVG Version: 6.00 Build 0)  -->
<svg version="1.1" id="Layer_1" xmlns="http://www.w3.org/2000/svg" xmlns:xlink="http://www.w3.org/1999/xlink" x="0px" y="0px"
	 viewBox="0 0 127 105.5" style="enable-background:new 0 0 127 105.5;" xml:space="preserve">
<style type="text/css">
	.st0{fill:#65DBF8;}
	.st1{fill:#4520AB;}
</style>
<circle class="st0" cx="72.9" cy="64" r="41.5"/>
<g>
	<path class="st1" d="M1.3,90.4c-0.3-0.3-0.8-0.3-1,0c-0.3,0.3-0.3,0.8,0,1L1.9,93c0.1,0.1,0.3,0.2,0.5,0.2s0.4-0.1,0.5-0.2
		c0.3-0.3,0.3-0.8,0-1L1.3,90.4z"/>
	<path class="st1" d="M6.5,95.6c-0.3-0.3-0.8-0.3-1,0c-0.3,0.3-0.3,0.8,0,1l1.6,1.6c0.1,0.1,0.3,0.2,0.5,0.2c0.2,0,0.4-0.1,0.5-0.2
		c0.3-0.3,0.3-0.8,0-1L6.5,95.6z"/>
	<path class="st1" d="M1.8,95.6l-1.6,1.6c-0.3,0.3-0.3,0.8,0,1c0.1,0.1,0.3,0.2,0.5,0.2s0.4-0.1,0.5-0.2l1.6-1.6
		c0.3-0.3,0.3-0.8,0-1S2.1,95.3,1.8,95.6z"/>
	<path class="st1" d="M7,90.4L5.4,92c-0.3,0.3-0.3,0.8,0,1c0.1,0.1,0.3,0.2,0.5,0.2s0.4-0.1,0.5-0.2L8,91.4c0.3-0.3,0.3-0.8,0-1
		C7.7,90.2,7.3,90.1,7,90.4z"/>
	<path class="st1" d="M119,45c0.1,0.1,0.3,0.2,0.5,0.2s0.4-0.1,0.5-0.2c0.3-0.3,0.3-0.8,0-1l-1.6-1.6c-0.3-0.3-0.8-0.3-1,0
		c-0.3,0.3-0.3,0.8,0,1L119,45z"/>
	<path class="st1" d="M124.2,50.2c0.1,0.1,0.3,0.2,0.5,0.2s0.4-0.1,0.5-0.2c0.3-0.3,0.3-0.8,0-1l-1.6-1.6c-0.3-0.3-0.8-0.3-1,0
		c-0.3,0.3-0.3,0.8,0,1L124.2,50.2z"/>
	<path class="st1" d="M117.9,50.4c0.2,0,0.4-0.1,0.5-0.2l1.6-1.6c0.3-0.3,0.3-0.8,0-1c-0.3-0.3-0.8-0.3-1,0l-1.6,1.6
		c-0.3,0.3-0.3,0.8,0,1C117.5,50.3,117.7,50.4,117.9,50.4z"/>
	<path class="st1" d="M123.1,45.2c0.2,0,0.4-0.1,0.5-0.2l1.6-1.6c0.3-0.3,0.3-0.8,0-1c-0.3-0.3-0.8-0.3-1,0l-1.6,1.6
		c-0.3,0.3-0.3,0.8,0,1C122.7,45.1,122.9,45.2,123.1,45.2z"/>
	<path class="st1" d="M119.5,18.3c0.4,0,0.7-0.3,0.7-0.7V5.8c0-0.4-0.3-0.7-0.7-0.7c-0.4,0-0.7,0.3-0.7,0.7v11.8
		C118.7,18,119.1,18.3,119.5,18.3z"/>
	<path class="st1" d="M119.5,28.1c0.4,0,0.7-0.3,0.7-0.7v-4.2c0-0.4-0.3-0.7-0.7-0.7c-0.4,0-0.7,0.3-0.7,0.7v4.2
		C118.7,27.8,119.1,28.1,119.5,28.1z"/>
	<path class="st1" d="M51.3,9.6c1.9,0,3.5-1.6,3.5-3.5s-1.6-3.5-3.5-3.5s-3.5,1.6-3.5,3.5S49.4,9.6,51.3,9.6z M51.3,4.1
		c1.1,0,2,0.9,2,2s-0.9,2-2,2s-2-0.9-2-2S50.2,4.1,51.3,4.1z"/>
	<path class="st1" d="M48.2,90.1c-1.9,0-3.5,1.6-3.5,3.5c0,1.9,1.6,3.5,3.5,3.5s3.5-1.6,3.5-3.5C51.7,91.7,50.1,90.1,48.2,90.1z
		 M48.2,95.6c-1.1,0-2-0.9-2-2c0-1.1,0.9-2,2-2s2,0.9,2,2C50.2,94.7,49.3,95.6,48.2,95.6z"/>
	<path class="st1" d="M8.8,42.1c0-1.9-1.6-3.5-3.5-3.5s-3.5,1.6-3.5,3.5s1.6,3.5,3.5,3.5C7.3,45.6,8.8,44,8.8,42.1z M5.3,44.1
		c-1.1,0-2-0.9-2-2s0.9-2,2-2s2,0.9,2,2S6.5,44.1,5.3,44.1z"/>
	<path class="st1" d="M15.6,6c0,0.4,0.3,0.7,0.7,0.7h15.4c0.4,0,0.7-0.3,0.7-0.7s-0.3-0.7-0.7-0.7H16.4C15.9,5.3,15.6,5.6,15.6,6z"
		/>
	<path class="st1" d="M6.3,6.7h5C11.7,6.7,12,6.4,12,6s-0.3-0.7-0.7-0.7h-5C5.9,5.3,5.6,5.6,5.6,6C5.6,6.4,5.9,6.7,6.3,6.7z"/>
	<path class="st1" d="M6.3,1.4h10.8c0.4,0,0.7-0.3,0.7-0.7S17.5,0,17.1,0H6.3C5.9,0,5.6,0.3,5.6,0.7C5.6,1.1,5.9,1.4,6.3,1.4z"/>
	<path class="st1" d="M21.7,1.4h3.5c0.4,0,0.7-0.3,0.7-0.7S25.6,0,25.2,0h-3.5C21.3,0,21,0.3,21,0.7C20.9,1.1,21.3,1.4,21.7,1.4z"/>
	<path class="st1" d="M116.9,93.1c0-0.4-0.3-0.7-0.7-0.7h-15.4c-0.4,0-0.7,0.3-0.7,0.7s0.3,0.7,0.7,0.7h15.4
		C116.6,93.8,116.9,93.5,116.9,93.1z"/>
	<path class="st1" d="M120.5,93.1c0,0.4,0.3,0.7,0.7,0.7h5c0.4,0,0.7-0.3,0.7-0.7c0-0.4-0.3-0.7-0.7-0.7h-5
		C120.9,92.4,120.5,92.7,120.5,93.1z"/>
	<path class="st1" d="M126.3,97.7h-10.8c-0.4,0-0.7,0.3-0.7,0.7c0,0.4,0.3,0.7,0.7,0.7h10.8c0.4,0,0.7-0.3,0.7-0.7
		S126.7,97.7,126.3,97.7z"/>
	<path class="st1" d="M110.9,97.7h-3.5c-0.4,0-0.7,0.3-0.7,0.7c0,0.4,0.3,0.7,0.7,0.7h3.5c0.4,0,0.7-0.3,0.7-0.7
		S111.3,97.7,110.9,97.7z"/>
	<path class="st1" d="M121.3,80.5l1.1-1.9c0.2-0.4,0.2-0.9,0-1.3c-0.2-0.4-0.7-0.7-1.1-0.7H6.8c-0.5,0-0.9,0.3-1.1,0.7
		c-0.2,0.4-0.2,0.9,0,1.3l1.1,1.9c1.9,3.2,5.5,5.2,9.2,5.2h96C115.8,85.7,119.3,83.7,121.3,80.5z M8.1,79.7l-1-1.6h113.8l-1,1.6
		c-1.7,2.8-4.7,4.5-8,4.5h-96C12.8,84.2,9.8,82.5,8.1,79.7z"/>
	<path class="st1" d="M21,16.2c-2.9,0-5.3,2.4-5.3,5.3v51.2c0,0.4,0.3,0.7,0.7,0.7h95.3c0.4,0,0.7-0.3,0.7-0.7V21.6
		c0-2.9-2.4-5.3-5.3-5.3L21,16.2z M107.1,17.8c2.1,0,3.8,1.7,3.8,3.8v50.5H17.1V21.6c0-2.1,1.7-3.8,3.8-3.8H107.1z"/>
	<path class="st1" d="M76.8,47.1c-0.3-0.2-0.8-0.1-1,0.2c-0.2,0.3-0.1,0.8,0.2,1l11,6.8l-11,6.8c-0.3,0.2-0.5,0.7-0.2,1
		c0.1,0.2,0.4,0.3,0.6,0.3c0.1,0,0.3,0,0.4-0.1l12-7.5c0.2-0.1,0.3-0.4,0.3-0.6s-0.1-0.5-0.3-0.6L76.8,47.1z"/>
	<path class="st1" d="M52.3,47.4c-0.2-0.3-0.7-0.5-1-0.2l-12,7.5c-0.2,0.1-0.3,0.4-0.3,0.6s0.1,0.5,0.3,0.6l12,7.5
		c0.1,0.1,0.3,0.1,0.4,0.1c0.2,0,0.5-0.1,0.6-0.3c0.2-0.3,0.1-0.8-0.2-1l-11-6.8l11-6.8C52.4,48.2,52.5,47.7,52.3,47.4z"/>
	<path class="st1" d="M68.6,43.1c-0.4-0.1-0.8,0-0.9,0.4L59.2,66c-0.1,0.4,0,0.8,0.4,0.9c0.1,0,0.2,0,0.3,0c0.3,0,0.6-0.2,0.7-0.5
		l8.5-22.5C69.2,43.6,69,43.2,68.6,43.1z"/>
	<path class="st1" d="M22.9,23.6c0,0.4,0.3,0.7,0.7,0.7h81.5c0.4,0,0.7-0.3,0.7-0.7s-0.3-0.7-0.7-0.7H23.7
		C23.3,22.8,22.9,23.2,22.9,23.6z"/>
	<g>
		<path class="st1" d="M29.5,28.6h-5.9c-0.4,0-0.7,0.3-0.7,0.7s0.3,0.7,0.7,0.7h5.9c0.4,0,0.7-0.3,0.7-0.7
			C30.3,28.9,29.9,28.6,29.5,28.6z"/>
		<path class="st1" d="M34.4,30.1h5.9c0.4,0,0.7-0.3,0.7-0.7s-0.3-0.7-0.7-0.7h-5.9c-0.4,0-0.7,0.3-0.7,0.7S34,30.1,34.4,30.1z"/>
		<path class="st1" d="M99.2,30.1h5.9c0.4,0,0.7-0.3,0.7-0.7s-0.3-0.7-0.7-0.7h-5.9c-0.4,0-0.7,0.3-0.7,0.7
			C98.4,29.8,98.8,30.1,99.2,30.1z"/>
		<path class="st1" d="M51.9,29.3c0-0.4-0.3-0.7-0.7-0.7h-5.9c-0.4,0-0.7,0.3-0.7,0.7s0.3,0.7,0.7,0.7h5.9
			C51.5,30.1,51.9,29.8,51.9,29.3z"/>
		<path class="st1" d="M94.3,28.6h-5.9c-0.4,0-0.7,0.3-0.7,0.7S88,30,88.4,30h5.9c0.4,0,0.7-0.3,0.7-0.7S94.7,28.6,94.3,28.6z"/>
		<path class="st1" d="M66.8,30.1h5.9c0.4,0,0.7-0.3,0.7-0.7s-0.3-0.7-0.7-0.7h-5.9c-0.4,0-0.7,0.3-0.7,0.7
			C66.1,29.8,66.4,30.1,66.8,30.1z"/>
		<path class="st1" d="M84.2,29.3c0-0.4-0.3-0.7-0.7-0.7h-5.9c-0.4,0-0.7,0.3-0.7,0.7s0.3,0.7,0.7,0.7h5.9
			C83.9,30.1,84.2,29.8,84.2,29.3z"/>
		<path class="st1" d="M61.9,30.1c0.4,0,0.7-0.3,0.7-0.7s-0.3-0.7-0.7-0.7H56c-0.4,0-0.7,0.3-0.7,0.7s0.3,0.7,0.7,0.7H61.9z"/>
	</g>
	<path class="st1" d="M74.8,34.9h-2.9h-0.1h-0.1h-4.9c-0.4,0-0.7,0.3-0.7,0.7s0.3,0.7,0.7,0.7h4.9h0.1h0.1h2.9
		c0.4,0,0.7-0.3,0.7-0.7C75.6,35.2,75.3,34.9,74.8,34.9z"/>
	<path class="st1" d="M105.1,34.9h-1H104h-0.1H99c-0.4,0-0.7,0.3-0.7,0.7s0.3,0.7,0.7,0.7h4.9h0.1h0.1h1c0.4,0,0.7-0.3,0.7-0.7
		C105.9,35.2,105.5,34.9,105.1,34.9z"/>
	<path class="st1" d="M96,34.9h-0.2c-0.4,0-0.7,0.3-0.7,0.7s0.3,0.7,0.7,0.7H96c0.4,0,0.7-0.3,0.7-0.7C96.8,35.2,96.4,34.9,96,34.9z
		"/>
	<path class="st1" d="M79.8,34.9c-0.4,0-0.7,0.3-0.7,0.7s0.3,0.7,0.7,0.7H80c0.4,0,0.7-0.3,0.7-0.7s-0.3-0.7-0.7-0.7H79.8z"/>
	<path class="st1" d="M90.9,34.9H88h-0.1h-0.1h-4.9c-0.4,0-0.7,0.3-0.7,0.7s0.3,0.7,0.7,0.7h4.9h0.1H88h2.9c0.4,0,0.7-0.3,0.7-0.7
		C91.7,35.2,91.3,34.9,90.9,34.9z"/>
	<path class="st1" d="M47.6,34.9c-0.4,0-0.7,0.3-0.7,0.7s0.3,0.7,0.7,0.7h0.2c0.4,0,0.7-0.3,0.7-0.7s-0.3-0.7-0.7-0.7H47.6z"/>
	<path class="st1" d="M59.5,35.6c0-0.4-0.3-0.7-0.7-0.7h-2.9h-0.1h-0.1h-4.9c-0.4,0-0.7,0.3-0.7,0.7s0.3,0.7,0.7,0.7h4.9h0.1h0.1
		h2.9C59.2,36.3,59.5,36,59.5,35.6z"/>
	<path class="st1" d="M39.6,36.3C39.7,36.3,39.7,36.3,39.6,36.3h3c0.4,0,0.7-0.3,0.7-0.7s-0.3-0.7-0.7-0.7h-2.9h-0.1h-0.1h-4.9
		c-0.4,0-0.7,0.3-0.7,0.7s0.3,0.7,0.7,0.7H39.6L39.6,36.3z"/>
	<path class="st1" d="M26.6,34.9h-2.9c-0.4,0-0.7,0.3-0.7,0.7s0.3,0.7,0.7,0.7h2.9c0.4,0,0.7-0.3,0.7-0.7
		C27.3,35.2,27,34.9,26.6,34.9z"/>
	<path class="st1" d="M31.7,34.9h-0.2c-0.4,0-0.7,0.3-0.7,0.7s0.3,0.7,0.7,0.7h0.2c0.4,0,0.7-0.3,0.7-0.7
		C32.4,35.2,32.1,34.9,31.7,34.9z"/>
	<path class="st1" d="M63.9,36.3c0.4,0,0.7-0.3,0.7-0.7s-0.3-0.7-0.7-0.7h-0.2c-0.4,0-0.7,0.3-0.7,0.7s0.3,0.7,0.7,0.7H63.9z"/>
</g>
</svg>
