<svg width="1440" height="902" viewBox="0 0 1440 902" fill="none" xmlns="http://www.w3.org/2000/svg">
<rect width="1440" height="901" fill="#4520AB"/>
<mask id="mask0" style="mask-type:alpha" maskUnits="userSpaceOnUse" x="0" y="533" width="831" height="369">
<rect y="533" width="831" height="369" fill="#C4C4C4"/>
</mask>
<g mask="url(#mask0)">
<g opacity="0.16">
<path d="M503.234 891.251L504.788 892.123L503.235 892.995C479.447 906.364 458.91 917.904 437.862 929.731L436.274 930.623C414.804 942.687 392.705 955.105 366 970.113V1031.04L584.745 908.442V876.305L366 753.707V814.293L503.234 891.251Z" stroke="#29EDFF" stroke-width="2"/>
<path d="M265.846 621.345L315.345 646.607L82.2651 1102.65L32.7657 1077.39L265.846 621.345Z" stroke="#29EDFF" stroke-width="2"/>
</g>
</g>
<g opacity="0.18">
<path d="M607.216 487.442C608.44 487.442 609.433 486.447 609.433 485.221C609.433 483.994 608.44 483 607.216 483C605.992 483 605 483.994 605 485.221C605 486.447 605.992 487.442 607.216 487.442Z" fill="#29EDFF"/>
<path d="M636.473 487.442C637.697 487.442 638.689 486.447 638.689 485.221C638.689 483.994 637.697 483 636.473 483C635.249 483 634.256 483.994 634.256 485.221C634.256 486.447 635.249 487.442 636.473 487.442Z" fill="#29EDFF"/>
<path d="M665.876 487.442C667.101 487.442 668.093 486.447 668.093 485.221C668.093 483.994 667.101 483 665.876 483C664.652 483 663.66 483.994 663.66 485.221C663.66 486.447 664.652 487.442 665.876 487.442Z" fill="#29EDFF"/>
<path d="M695.133 487.442C696.357 487.442 697.349 486.447 697.349 485.221C697.349 483.994 696.357 483 695.133 483C693.909 483 692.917 483.994 692.917 485.221C692.917 486.447 693.909 487.442 695.133 487.442Z" fill="#29EDFF"/>
<path d="M724.389 487.442C725.613 487.442 726.605 486.447 726.605 485.221C726.605 483.994 725.613 483 724.389 483C723.165 483 722.172 483.994 722.172 485.221C722.172 486.447 723.165 487.442 724.389 487.442Z" fill="#29EDFF"/>
<path d="M753.645 487.442C754.869 487.442 755.862 486.447 755.862 485.221C755.862 483.994 754.869 483 753.645 483C752.421 483 751.429 483.994 751.429 485.221C751.429 486.447 752.421 487.442 753.645 487.442Z" fill="#29EDFF"/>
<path d="M782.901 487.442C784.125 487.442 785.117 486.447 785.117 485.221C785.117 483.994 784.125 483 782.901 483C781.677 483 780.685 483.994 780.685 485.221C780.685 486.447 781.677 487.442 782.901 487.442Z" fill="#29EDFF"/>
<path d="M812.158 487.442C813.382 487.442 814.374 486.447 814.374 485.221C814.374 483.994 813.382 483 812.158 483C810.933 483 809.941 483.994 809.941 485.221C809.941 486.447 810.933 487.442 812.158 487.442Z" fill="#29EDFF"/>
<path d="M841.414 487.442C842.638 487.442 843.63 486.447 843.63 485.221C843.63 483.994 842.638 483 841.414 483C840.19 483 839.197 483.994 839.197 485.221C839.197 486.447 840.19 487.442 841.414 487.442Z" fill="#29EDFF"/>
<path d="M870.818 487.442C872.042 487.442 873.034 486.447 873.034 485.221C873.034 483.994 872.042 483 870.818 483C869.594 483 868.601 483.994 868.601 485.221C868.601 486.447 869.594 487.442 870.818 487.442Z" fill="#29EDFF"/>
<path d="M900.074 487.442C901.298 487.442 902.29 486.447 902.29 485.221C902.29 483.994 901.298 483 900.074 483C898.85 483 897.858 483.994 897.858 485.221C897.858 486.447 898.85 487.442 900.074 487.442Z" fill="#29EDFF"/>
<path d="M929.33 487.442C930.554 487.442 931.546 486.447 931.546 485.221C931.546 483.994 930.554 483 929.33 483C928.106 483 927.114 483.994 927.114 485.221C927.114 486.447 928.106 487.442 929.33 487.442Z" fill="#29EDFF"/>
<path d="M958.586 487.442C959.81 487.442 960.803 486.447 960.803 485.221C960.803 483.994 959.81 483 958.586 483C957.362 483 956.37 483.994 956.37 485.221C956.37 486.447 957.362 487.442 958.586 487.442Z" fill="#29EDFF"/>
<path d="M987.842 487.442C989.066 487.442 990.059 486.447 990.059 485.221C990.059 483.994 989.066 483 987.842 483C986.618 483 985.626 483.994 985.626 485.221C985.626 486.447 986.618 487.442 987.842 487.442Z" fill="#29EDFF"/>
<path d="M1017.1 487.442C1018.32 487.442 1019.32 486.447 1019.32 485.221C1019.32 483.994 1018.32 483 1017.1 483C1015.87 483 1014.88 483.994 1014.88 485.221C1014.88 486.447 1015.87 487.442 1017.1 487.442Z" fill="#29EDFF"/>
<path d="M1046.35 487.442C1047.58 487.442 1048.57 486.447 1048.57 485.221C1048.57 483.994 1047.58 483 1046.35 483C1045.13 483 1044.14 483.994 1044.14 485.221C1044.14 486.447 1045.13 487.442 1046.35 487.442Z" fill="#29EDFF"/>
<path d="M1075.76 487.442C1076.98 487.442 1077.98 486.447 1077.98 485.221C1077.98 483.994 1076.98 483 1075.76 483C1074.53 483 1073.54 483.994 1073.54 485.221C1073.54 486.447 1074.53 487.442 1075.76 487.442Z" fill="#29EDFF"/>
<path d="M1105.02 487.442C1106.24 487.442 1107.23 486.447 1107.23 485.221C1107.23 483.994 1106.24 483 1105.02 483C1103.79 483 1102.8 483.994 1102.8 485.221C1102.8 486.447 1103.79 487.442 1105.02 487.442Z" fill="#29EDFF"/>
<path d="M1134.27 487.442C1135.5 487.442 1136.49 486.447 1136.49 485.221C1136.49 483.994 1135.5 483 1134.27 483C1133.05 483 1132.06 483.994 1132.06 485.221C1132.06 486.447 1133.05 487.442 1134.27 487.442Z" fill="#29EDFF"/>
<path d="M1163.53 487.442C1164.75 487.442 1165.74 486.447 1165.74 485.221C1165.74 483.994 1164.75 483 1163.53 483C1162.3 483 1161.31 483.994 1161.31 485.221C1161.31 486.447 1162.3 487.442 1163.53 487.442Z" fill="#29EDFF"/>
<path d="M1192.78 487.442C1194.01 487.442 1195 486.447 1195 485.221C1195 483.994 1194.01 483 1192.78 483C1191.56 483 1190.57 483.994 1190.57 485.221C1190.57 486.447 1191.56 487.442 1192.78 487.442Z" fill="#29EDFF"/>
<path d="M607.216 518.386C608.44 518.386 609.433 517.392 609.433 516.165C609.433 514.939 608.44 513.945 607.216 513.945C605.992 513.945 605 514.939 605 516.165C605 517.392 605.992 518.386 607.216 518.386Z" fill="#29EDFF"/>
<path d="M636.473 518.386C637.697 518.386 638.689 517.392 638.689 516.165C638.689 514.939 637.697 513.945 636.473 513.945C635.249 513.945 634.256 514.939 634.256 516.165C634.256 517.392 635.249 518.386 636.473 518.386Z" fill="#29EDFF"/>
<path d="M665.876 518.386C667.101 518.386 668.093 517.392 668.093 516.165C668.093 514.939 667.101 513.945 665.876 513.945C664.652 513.945 663.66 514.939 663.66 516.165C663.66 517.392 664.652 518.386 665.876 518.386Z" fill="#29EDFF"/>
<path d="M695.133 518.386C696.357 518.386 697.349 517.392 697.349 516.165C697.349 514.939 696.357 513.945 695.133 513.945C693.909 513.945 692.917 514.939 692.917 516.165C692.917 517.392 693.909 518.386 695.133 518.386Z" fill="#29EDFF"/>
<path d="M724.389 518.386C725.613 518.386 726.605 517.392 726.605 516.165C726.605 514.939 725.613 513.945 724.389 513.945C723.165 513.945 722.172 514.939 722.172 516.165C722.172 517.392 723.165 518.386 724.389 518.386Z" fill="#29EDFF"/>
<path d="M753.645 518.386C754.869 518.386 755.862 517.392 755.862 516.165C755.862 514.939 754.869 513.945 753.645 513.945C752.421 513.945 751.429 514.939 751.429 516.165C751.429 517.392 752.421 518.386 753.645 518.386Z" fill="#29EDFF"/>
<path d="M782.901 518.386C784.125 518.386 785.117 517.392 785.117 516.165C785.117 514.939 784.125 513.945 782.901 513.945C781.677 513.945 780.685 514.939 780.685 516.165C780.685 517.392 781.677 518.386 782.901 518.386Z" fill="#29EDFF"/>
<path d="M812.158 518.386C813.382 518.386 814.374 517.392 814.374 516.165C814.374 514.939 813.382 513.945 812.158 513.945C810.933 513.945 809.941 514.939 809.941 516.165C809.941 517.392 810.933 518.386 812.158 518.386Z" fill="#29EDFF"/>
<path d="M841.414 518.386C842.638 518.386 843.63 517.392 843.63 516.165C843.63 514.939 842.638 513.945 841.414 513.945C840.19 513.945 839.197 514.939 839.197 516.165C839.197 517.392 840.19 518.386 841.414 518.386Z" fill="#29EDFF"/>
<path d="M870.818 518.386C872.042 518.386 873.034 517.392 873.034 516.165C873.034 514.939 872.042 513.945 870.818 513.945C869.594 513.945 868.601 514.939 868.601 516.165C868.601 517.392 869.594 518.386 870.818 518.386Z" fill="#29EDFF"/>
<path d="M900.074 518.386C901.298 518.386 902.29 517.392 902.29 516.165C902.29 514.939 901.298 513.945 900.074 513.945C898.85 513.945 897.858 514.939 897.858 516.165C897.858 517.392 898.85 518.386 900.074 518.386Z" fill="#29EDFF"/>
<path d="M929.33 518.386C930.554 518.386 931.546 517.392 931.546 516.165C931.546 514.939 930.554 513.945 929.33 513.945C928.106 513.945 927.114 514.939 927.114 516.165C927.114 517.392 928.106 518.386 929.33 518.386Z" fill="#29EDFF"/>
<path d="M958.586 518.386C959.81 518.386 960.803 517.392 960.803 516.165C960.803 514.939 959.81 513.945 958.586 513.945C957.362 513.945 956.37 514.939 956.37 516.165C956.37 517.392 957.362 518.386 958.586 518.386Z" fill="#29EDFF"/>
<path d="M987.842 518.386C989.066 518.386 990.059 517.392 990.059 516.165C990.059 514.939 989.066 513.945 987.842 513.945C986.618 513.945 985.626 514.939 985.626 516.165C985.626 517.392 986.618 518.386 987.842 518.386Z" fill="#29EDFF"/>
<path d="M1017.1 518.386C1018.32 518.386 1019.32 517.392 1019.32 516.165C1019.32 514.939 1018.32 513.945 1017.1 513.945C1015.87 513.945 1014.88 514.939 1014.88 516.165C1014.88 517.392 1015.87 518.386 1017.1 518.386Z" fill="#29EDFF"/>
<path d="M1046.35 518.386C1047.58 518.386 1048.57 517.392 1048.57 516.165C1048.57 514.939 1047.58 513.945 1046.35 513.945C1045.13 513.945 1044.14 514.939 1044.14 516.165C1044.14 517.392 1045.13 518.386 1046.35 518.386Z" fill="#29EDFF"/>
<path d="M1075.76 518.386C1076.98 518.386 1077.98 517.392 1077.98 516.165C1077.98 514.939 1076.98 513.945 1075.76 513.945C1074.53 513.945 1073.54 514.939 1073.54 516.165C1073.54 517.392 1074.53 518.386 1075.76 518.386Z" fill="#29EDFF"/>
<path d="M1105.02 518.386C1106.24 518.386 1107.23 517.392 1107.23 516.165C1107.23 514.939 1106.24 513.945 1105.02 513.945C1103.79 513.945 1102.8 514.939 1102.8 516.165C1102.8 517.392 1103.79 518.386 1105.02 518.386Z" fill="#29EDFF"/>
<path d="M1134.27 518.386C1135.5 518.386 1136.49 517.392 1136.49 516.165C1136.49 514.939 1135.5 513.945 1134.27 513.945C1133.05 513.945 1132.06 514.939 1132.06 516.165C1132.06 517.392 1133.05 518.386 1134.27 518.386Z" fill="#29EDFF"/>
<path d="M1163.53 518.386C1164.75 518.386 1165.74 517.392 1165.74 516.165C1165.74 514.939 1164.75 513.945 1163.53 513.945C1162.3 513.945 1161.31 514.939 1161.31 516.165C1161.31 517.392 1162.3 518.386 1163.53 518.386Z" fill="#29EDFF"/>
<path d="M1192.78 518.386C1194.01 518.386 1195 517.392 1195 516.165C1195 514.939 1194.01 513.945 1192.78 513.945C1191.56 513.945 1190.57 514.939 1190.57 516.165C1190.57 517.392 1191.56 518.386 1192.78 518.386Z" fill="#29EDFF"/>
<path d="M607.216 549.183C608.44 549.183 609.433 548.189 609.433 546.962C609.433 545.736 608.44 544.741 607.216 544.741C605.992 544.741 605 545.736 605 546.962C605 548.189 605.992 549.183 607.216 549.183Z" fill="#29EDFF"/>
<path d="M636.473 549.183C637.697 549.183 638.689 548.189 638.689 546.962C638.689 545.736 637.697 544.741 636.473 544.741C635.249 544.741 634.256 545.736 634.256 546.962C634.256 548.189 635.249 549.183 636.473 549.183Z" fill="#29EDFF"/>
<path d="M665.876 549.183C667.101 549.183 668.093 548.189 668.093 546.962C668.093 545.736 667.101 544.741 665.876 544.741C664.652 544.741 663.66 545.736 663.66 546.962C663.66 548.189 664.652 549.183 665.876 549.183Z" fill="#29EDFF"/>
<path d="M695.133 549.183C696.357 549.183 697.349 548.189 697.349 546.962C697.349 545.736 696.357 544.741 695.133 544.741C693.909 544.741 692.917 545.736 692.917 546.962C692.917 548.189 693.909 549.183 695.133 549.183Z" fill="#29EDFF"/>
<path d="M724.389 549.183C725.613 549.183 726.605 548.189 726.605 546.962C726.605 545.736 725.613 544.741 724.389 544.741C723.165 544.741 722.172 545.736 722.172 546.962C722.172 548.189 723.165 549.183 724.389 549.183Z" fill="#29EDFF"/>
<path d="M753.645 549.183C754.869 549.183 755.862 548.189 755.862 546.962C755.862 545.736 754.869 544.741 753.645 544.741C752.421 544.741 751.429 545.736 751.429 546.962C751.429 548.189 752.421 549.183 753.645 549.183Z" fill="#29EDFF"/>
<path d="M782.901 549.183C784.125 549.183 785.117 548.189 785.117 546.962C785.117 545.736 784.125 544.741 782.901 544.741C781.677 544.741 780.685 545.736 780.685 546.962C780.685 548.189 781.677 549.183 782.901 549.183Z" fill="#29EDFF"/>
<path d="M812.158 549.183C813.382 549.183 814.374 548.189 814.374 546.962C814.374 545.736 813.382 544.741 812.158 544.741C810.933 544.741 809.941 545.736 809.941 546.962C809.941 548.189 810.933 549.183 812.158 549.183Z" fill="#29EDFF"/>
<path d="M841.414 549.183C842.638 549.183 843.63 548.189 843.63 546.962C843.63 545.736 842.638 544.741 841.414 544.741C840.19 544.741 839.197 545.736 839.197 546.962C839.197 548.189 840.19 549.183 841.414 549.183Z" fill="#29EDFF"/>
<path d="M870.818 549.183C872.042 549.183 873.034 548.189 873.034 546.962C873.034 545.736 872.042 544.741 870.818 544.741C869.594 544.741 868.601 545.736 868.601 546.962C868.601 548.189 869.594 549.183 870.818 549.183Z" fill="#29EDFF"/>
<path d="M900.074 549.183C901.298 549.183 902.29 548.189 902.29 546.962C902.29 545.736 901.298 544.741 900.074 544.741C898.85 544.741 897.858 545.736 897.858 546.962C897.858 548.189 898.85 549.183 900.074 549.183Z" fill="#29EDFF"/>
<path d="M929.33 549.183C930.554 549.183 931.546 548.189 931.546 546.962C931.546 545.736 930.554 544.741 929.33 544.741C928.106 544.741 927.114 545.736 927.114 546.962C927.114 548.189 928.106 549.183 929.33 549.183Z" fill="#29EDFF"/>
<path d="M958.586 549.183C959.81 549.183 960.803 548.189 960.803 546.962C960.803 545.736 959.81 544.741 958.586 544.741C957.362 544.741 956.37 545.736 956.37 546.962C956.37 548.189 957.362 549.183 958.586 549.183Z" fill="#29EDFF"/>
<path d="M987.842 549.183C989.066 549.183 990.059 548.189 990.059 546.962C990.059 545.736 989.066 544.741 987.842 544.741C986.618 544.741 985.626 545.736 985.626 546.962C985.626 548.189 986.618 549.183 987.842 549.183Z" fill="#29EDFF"/>
<path d="M1017.1 549.183C1018.32 549.183 1019.32 548.189 1019.32 546.962C1019.32 545.736 1018.32 544.741 1017.1 544.741C1015.87 544.741 1014.88 545.736 1014.88 546.962C1014.88 548.189 1015.87 549.183 1017.1 549.183Z" fill="#29EDFF"/>
<path d="M1046.35 549.183C1047.58 549.183 1048.57 548.189 1048.57 546.962C1048.57 545.736 1047.58 544.741 1046.35 544.741C1045.13 544.741 1044.14 545.736 1044.14 546.962C1044.14 548.189 1045.13 549.183 1046.35 549.183Z" fill="#29EDFF"/>
<path d="M1075.76 549.183C1076.98 549.183 1077.98 548.189 1077.98 546.962C1077.98 545.736 1076.98 544.741 1075.76 544.741C1074.53 544.741 1073.54 545.736 1073.54 546.962C1073.54 548.189 1074.53 549.183 1075.76 549.183Z" fill="#29EDFF"/>
<path d="M1105.02 549.183C1106.24 549.183 1107.23 548.189 1107.23 546.962C1107.23 545.736 1106.24 544.741 1105.02 544.741C1103.79 544.741 1102.8 545.736 1102.8 546.962C1102.8 548.189 1103.79 549.183 1105.02 549.183Z" fill="#29EDFF"/>
<path d="M1134.27 549.183C1135.5 549.183 1136.49 548.189 1136.49 546.962C1136.49 545.736 1135.5 544.741 1134.27 544.741C1133.05 544.741 1132.06 545.736 1132.06 546.962C1132.06 548.189 1133.05 549.183 1134.27 549.183Z" fill="#29EDFF"/>
<path d="M1163.53 549.183C1164.75 549.183 1165.74 548.189 1165.74 546.962C1165.74 545.736 1164.75 544.741 1163.53 544.741C1162.3 544.741 1161.31 545.736 1161.31 546.962C1161.31 548.189 1162.3 549.183 1163.53 549.183Z" fill="#29EDFF"/>
<path d="M1192.78 549.183C1194.01 549.183 1195 548.189 1195 546.962C1195 545.736 1194.01 544.741 1192.78 544.741C1191.56 544.741 1190.57 545.736 1190.57 546.962C1190.57 548.189 1191.56 549.183 1192.78 549.183Z" fill="#29EDFF"/>
<path d="M607.216 579.98C608.44 579.98 609.433 578.985 609.433 577.759C609.433 576.532 608.44 575.538 607.216 575.538C605.992 575.538 605 576.532 605 577.759C605 578.985 605.992 579.98 607.216 579.98Z" fill="#29EDFF"/>
<path d="M636.473 579.98C637.697 579.98 638.689 578.985 638.689 577.759C638.689 576.532 637.697 575.538 636.473 575.538C635.249 575.538 634.256 576.532 634.256 577.759C634.256 578.985 635.249 579.98 636.473 579.98Z" fill="#29EDFF"/>
<path d="M665.876 579.98C667.101 579.98 668.093 578.985 668.093 577.759C668.093 576.532 667.101 575.538 665.876 575.538C664.652 575.538 663.66 576.532 663.66 577.759C663.66 578.985 664.652 579.98 665.876 579.98Z" fill="#29EDFF"/>
<path d="M695.133 579.98C696.357 579.98 697.349 578.985 697.349 577.759C697.349 576.532 696.357 575.538 695.133 575.538C693.909 575.538 692.917 576.532 692.917 577.759C692.917 578.985 693.909 579.98 695.133 579.98Z" fill="#29EDFF"/>
<path d="M724.389 579.98C725.613 579.98 726.605 578.985 726.605 577.759C726.605 576.532 725.613 575.538 724.389 575.538C723.165 575.538 722.172 576.532 722.172 577.759C722.172 578.985 723.165 579.98 724.389 579.98Z" fill="#29EDFF"/>
<path d="M753.645 579.98C754.869 579.98 755.862 578.985 755.862 577.759C755.862 576.532 754.869 575.538 753.645 575.538C752.421 575.538 751.429 576.532 751.429 577.759C751.429 578.985 752.421 579.98 753.645 579.98Z" fill="#29EDFF"/>
<path d="M782.901 579.98C784.125 579.98 785.117 578.985 785.117 577.759C785.117 576.532 784.125 575.538 782.901 575.538C781.677 575.538 780.685 576.532 780.685 577.759C780.685 578.985 781.677 579.98 782.901 579.98Z" fill="#29EDFF"/>
<path d="M812.158 579.98C813.382 579.98 814.374 578.985 814.374 577.759C814.374 576.532 813.382 575.538 812.158 575.538C810.933 575.538 809.941 576.532 809.941 577.759C809.941 578.985 810.933 579.98 812.158 579.98Z" fill="#29EDFF"/>
<path d="M841.414 579.98C842.638 579.98 843.63 578.985 843.63 577.759C843.63 576.532 842.638 575.538 841.414 575.538C840.19 575.538 839.197 576.532 839.197 577.759C839.197 578.985 840.19 579.98 841.414 579.98Z" fill="#29EDFF"/>
<path d="M870.818 579.98C872.042 579.98 873.034 578.985 873.034 577.759C873.034 576.532 872.042 575.538 870.818 575.538C869.594 575.538 868.601 576.532 868.601 577.759C868.601 578.985 869.594 579.98 870.818 579.98Z" fill="#29EDFF"/>
<path d="M900.074 579.98C901.298 579.98 902.29 578.985 902.29 577.759C902.29 576.532 901.298 575.538 900.074 575.538C898.85 575.538 897.858 576.532 897.858 577.759C897.858 578.985 898.85 579.98 900.074 579.98Z" fill="#29EDFF"/>
<path d="M929.33 579.98C930.554 579.98 931.546 578.985 931.546 577.759C931.546 576.532 930.554 575.538 929.33 575.538C928.106 575.538 927.114 576.532 927.114 577.759C927.114 578.985 928.106 579.98 929.33 579.98Z" fill="#29EDFF"/>
<path d="M958.586 579.98C959.81 579.98 960.803 578.985 960.803 577.759C960.803 576.532 959.81 575.538 958.586 575.538C957.362 575.538 956.37 576.532 956.37 577.759C956.37 578.985 957.362 579.98 958.586 579.98Z" fill="#29EDFF"/>
<path d="M987.842 579.98C989.066 579.98 990.059 578.985 990.059 577.759C990.059 576.532 989.066 575.538 987.842 575.538C986.618 575.538 985.626 576.532 985.626 577.759C985.626 578.985 986.618 579.98 987.842 579.98Z" fill="#29EDFF"/>
<path d="M1017.1 579.98C1018.32 579.98 1019.32 578.985 1019.32 577.759C1019.32 576.532 1018.32 575.538 1017.1 575.538C1015.87 575.538 1014.88 576.532 1014.88 577.759C1014.88 578.985 1015.87 579.98 1017.1 579.98Z" fill="#29EDFF"/>
<path d="M1046.35 579.98C1047.58 579.98 1048.57 578.985 1048.57 577.759C1048.57 576.532 1047.58 575.538 1046.35 575.538C1045.13 575.538 1044.14 576.532 1044.14 577.759C1044.14 578.985 1045.13 579.98 1046.35 579.98Z" fill="#29EDFF"/>
<path d="M1075.76 579.98C1076.98 579.98 1077.98 578.985 1077.98 577.759C1077.98 576.532 1076.98 575.538 1075.76 575.538C1074.53 575.538 1073.54 576.532 1073.54 577.759C1073.54 578.985 1074.53 579.98 1075.76 579.98Z" fill="#29EDFF"/>
<path d="M1105.02 579.98C1106.24 579.98 1107.23 578.985 1107.23 577.759C1107.23 576.532 1106.24 575.538 1105.02 575.538C1103.79 575.538 1102.8 576.532 1102.8 577.759C1102.8 578.985 1103.79 579.98 1105.02 579.98Z" fill="#29EDFF"/>
<path d="M1134.27 579.98C1135.5 579.98 1136.49 578.985 1136.49 577.759C1136.49 576.532 1135.5 575.538 1134.27 575.538C1133.05 575.538 1132.06 576.532 1132.06 577.759C1132.06 578.985 1133.05 579.98 1134.27 579.98Z" fill="#29EDFF"/>
<path d="M1163.53 579.98C1164.75 579.98 1165.74 578.985 1165.74 577.759C1165.74 576.532 1164.75 575.538 1163.53 575.538C1162.3 575.538 1161.31 576.532 1161.31 577.759C1161.31 578.985 1162.3 579.98 1163.53 579.98Z" fill="#29EDFF"/>
<path d="M1192.78 579.98C1194.01 579.98 1195 578.985 1195 577.759C1195 576.532 1194.01 575.538 1192.78 575.538C1191.56 575.538 1190.57 576.532 1190.57 577.759C1190.57 578.985 1191.56 579.98 1192.78 579.98Z" fill="#29EDFF"/>
<path d="M607.216 610.776C608.44 610.776 609.433 609.782 609.433 608.555C609.433 607.329 608.44 606.334 607.216 606.334C605.992 606.334 605 607.329 605 608.555C605 609.782 605.992 610.776 607.216 610.776Z" fill="#29EDFF"/>
<path d="M636.473 610.776C637.697 610.776 638.689 609.782 638.689 608.555C638.689 607.329 637.697 606.334 636.473 606.334C635.249 606.334 634.256 607.329 634.256 608.555C634.256 609.782 635.249 610.776 636.473 610.776Z" fill="#29EDFF"/>
<path d="M665.876 610.776C667.101 610.776 668.093 609.782 668.093 608.555C668.093 607.329 667.101 606.334 665.876 606.334C664.652 606.334 663.66 607.329 663.66 608.555C663.66 609.782 664.652 610.776 665.876 610.776Z" fill="#29EDFF"/>
<path d="M695.133 610.776C696.357 610.776 697.349 609.782 697.349 608.555C697.349 607.329 696.357 606.334 695.133 606.334C693.909 606.334 692.917 607.329 692.917 608.555C692.917 609.782 693.909 610.776 695.133 610.776Z" fill="#29EDFF"/>
<path d="M724.389 610.776C725.613 610.776 726.605 609.782 726.605 608.555C726.605 607.329 725.613 606.334 724.389 606.334C723.165 606.334 722.172 607.329 722.172 608.555C722.172 609.782 723.165 610.776 724.389 610.776Z" fill="#29EDFF"/>
<path d="M753.645 610.776C754.869 610.776 755.862 609.782 755.862 608.555C755.862 607.329 754.869 606.334 753.645 606.334C752.421 606.334 751.429 607.329 751.429 608.555C751.429 609.782 752.421 610.776 753.645 610.776Z" fill="#29EDFF"/>
<path d="M782.901 610.776C784.125 610.776 785.117 609.782 785.117 608.555C785.117 607.329 784.125 606.334 782.901 606.334C781.677 606.334 780.685 607.329 780.685 608.555C780.685 609.782 781.677 610.776 782.901 610.776Z" fill="#29EDFF"/>
<path d="M812.158 610.776C813.382 610.776 814.374 609.782 814.374 608.555C814.374 607.329 813.382 606.334 812.158 606.334C810.933 606.334 809.941 607.329 809.941 608.555C809.941 609.782 810.933 610.776 812.158 610.776Z" fill="#29EDFF"/>
<path d="M841.414 610.776C842.638 610.776 843.63 609.782 843.63 608.555C843.63 607.329 842.638 606.334 841.414 606.334C840.19 606.334 839.197 607.329 839.197 608.555C839.197 609.782 840.19 610.776 841.414 610.776Z" fill="#29EDFF"/>
<path d="M870.818 610.776C872.042 610.776 873.034 609.782 873.034 608.555C873.034 607.329 872.042 606.334 870.818 606.334C869.594 606.334 868.601 607.329 868.601 608.555C868.601 609.782 869.594 610.776 870.818 610.776Z" fill="#29EDFF"/>
<path d="M900.074 610.776C901.298 610.776 902.29 609.782 902.29 608.555C902.29 607.329 901.298 606.334 900.074 606.334C898.85 606.334 897.858 607.329 897.858 608.555C897.858 609.782 898.85 610.776 900.074 610.776Z" fill="#29EDFF"/>
<path d="M929.33 610.776C930.554 610.776 931.546 609.782 931.546 608.555C931.546 607.329 930.554 606.334 929.33 606.334C928.106 606.334 927.114 607.329 927.114 608.555C927.114 609.782 928.106 610.776 929.33 610.776Z" fill="#29EDFF"/>
<path d="M958.586 610.776C959.81 610.776 960.803 609.782 960.803 608.555C960.803 607.329 959.81 606.334 958.586 606.334C957.362 606.334 956.37 607.329 956.37 608.555C956.37 609.782 957.362 610.776 958.586 610.776Z" fill="#29EDFF"/>
<path d="M987.842 610.776C989.066 610.776 990.059 609.782 990.059 608.555C990.059 607.329 989.066 606.334 987.842 606.334C986.618 606.334 985.626 607.329 985.626 608.555C985.626 609.782 986.618 610.776 987.842 610.776Z" fill="#29EDFF"/>
<path d="M1017.1 610.776C1018.32 610.776 1019.32 609.782 1019.32 608.555C1019.32 607.329 1018.32 606.334 1017.1 606.334C1015.87 606.334 1014.88 607.329 1014.88 608.555C1014.88 609.782 1015.87 610.776 1017.1 610.776Z" fill="#29EDFF"/>
<path d="M1046.35 610.776C1047.58 610.776 1048.57 609.782 1048.57 608.555C1048.57 607.329 1047.58 606.334 1046.35 606.334C1045.13 606.334 1044.14 607.329 1044.14 608.555C1044.14 609.782 1045.13 610.776 1046.35 610.776Z" fill="#29EDFF"/>
<path d="M1075.76 610.776C1076.98 610.776 1077.98 609.782 1077.98 608.555C1077.98 607.329 1076.98 606.334 1075.76 606.334C1074.53 606.334 1073.54 607.329 1073.54 608.555C1073.54 609.782 1074.53 610.776 1075.76 610.776Z" fill="#29EDFF"/>
<path d="M1105.02 610.776C1106.24 610.776 1107.23 609.782 1107.23 608.555C1107.23 607.329 1106.24 606.334 1105.02 606.334C1103.79 606.334 1102.8 607.329 1102.8 608.555C1102.8 609.782 1103.79 610.776 1105.02 610.776Z" fill="#29EDFF"/>
<path d="M1134.27 610.776C1135.5 610.776 1136.49 609.782 1136.49 608.555C1136.49 607.329 1135.5 606.334 1134.27 606.334C1133.05 606.334 1132.06 607.329 1132.06 608.555C1132.06 609.782 1133.05 610.776 1134.27 610.776Z" fill="#29EDFF"/>
<path d="M1163.53 610.776C1164.75 610.776 1165.74 609.782 1165.74 608.555C1165.74 607.329 1164.75 606.334 1163.53 606.334C1162.3 606.334 1161.31 607.329 1161.31 608.555C1161.31 609.782 1162.3 610.776 1163.53 610.776Z" fill="#29EDFF"/>
<path d="M1192.78 610.776C1194.01 610.776 1195 609.782 1195 608.555C1195 607.329 1194.01 606.334 1192.78 606.334C1191.56 606.334 1190.57 607.329 1190.57 608.555C1190.57 609.782 1191.56 610.776 1192.78 610.776Z" fill="#29EDFF"/>
<path d="M607.216 641.721C608.44 641.721 609.433 640.727 609.433 639.5C609.433 638.273 608.44 637.279 607.216 637.279C605.992 637.279 605 638.273 605 639.5C605 640.727 605.992 641.721 607.216 641.721Z" fill="#29EDFF"/>
<path d="M636.473 641.721C637.697 641.721 638.689 640.727 638.689 639.5C638.689 638.273 637.697 637.279 636.473 637.279C635.249 637.279 634.256 638.273 634.256 639.5C634.256 640.727 635.249 641.721 636.473 641.721Z" fill="#29EDFF"/>
<path d="M665.876 641.721C667.101 641.721 668.093 640.727 668.093 639.5C668.093 638.273 667.101 637.279 665.876 637.279C664.652 637.279 663.66 638.273 663.66 639.5C663.66 640.727 664.652 641.721 665.876 641.721Z" fill="#29EDFF"/>
<path d="M695.133 641.721C696.357 641.721 697.349 640.727 697.349 639.5C697.349 638.273 696.357 637.279 695.133 637.279C693.909 637.279 692.917 638.273 692.917 639.5C692.917 640.727 693.909 641.721 695.133 641.721Z" fill="#29EDFF"/>
<path d="M724.389 641.721C725.613 641.721 726.605 640.727 726.605 639.5C726.605 638.273 725.613 637.279 724.389 637.279C723.165 637.279 722.172 638.273 722.172 639.5C722.172 640.727 723.165 641.721 724.389 641.721Z" fill="#29EDFF"/>
<path d="M753.645 641.721C754.869 641.721 755.862 640.727 755.862 639.5C755.862 638.273 754.869 637.279 753.645 637.279C752.421 637.279 751.429 638.273 751.429 639.5C751.429 640.727 752.421 641.721 753.645 641.721Z" fill="#29EDFF"/>
<path d="M782.901 641.721C784.125 641.721 785.117 640.727 785.117 639.5C785.117 638.273 784.125 637.279 782.901 637.279C781.677 637.279 780.685 638.273 780.685 639.5C780.685 640.727 781.677 641.721 782.901 641.721Z" fill="#29EDFF"/>
<path d="M812.158 641.721C813.382 641.721 814.374 640.727 814.374 639.5C814.374 638.273 813.382 637.279 812.158 637.279C810.933 637.279 809.941 638.273 809.941 639.5C809.941 640.727 810.933 641.721 812.158 641.721Z" fill="#29EDFF"/>
<path d="M841.414 641.721C842.638 641.721 843.63 640.727 843.63 639.5C843.63 638.273 842.638 637.279 841.414 637.279C840.19 637.279 839.197 638.273 839.197 639.5C839.197 640.727 840.19 641.721 841.414 641.721Z" fill="#29EDFF"/>
<path d="M870.818 641.721C872.042 641.721 873.034 640.727 873.034 639.5C873.034 638.273 872.042 637.279 870.818 637.279C869.594 637.279 868.601 638.273 868.601 639.5C868.601 640.727 869.594 641.721 870.818 641.721Z" fill="#29EDFF"/>
<path d="M900.074 641.721C901.298 641.721 902.29 640.727 902.29 639.5C902.29 638.273 901.298 637.279 900.074 637.279C898.85 637.279 897.858 638.273 897.858 639.5C897.858 640.727 898.85 641.721 900.074 641.721Z" fill="#29EDFF"/>
<path d="M929.33 641.721C930.554 641.721 931.546 640.727 931.546 639.5C931.546 638.273 930.554 637.279 929.33 637.279C928.106 637.279 927.114 638.273 927.114 639.5C927.114 640.727 928.106 641.721 929.33 641.721Z" fill="#29EDFF"/>
<path d="M958.586 641.721C959.81 641.721 960.803 640.727 960.803 639.5C960.803 638.273 959.81 637.279 958.586 637.279C957.362 637.279 956.37 638.273 956.37 639.5C956.37 640.727 957.362 641.721 958.586 641.721Z" fill="#29EDFF"/>
<path d="M987.842 641.721C989.066 641.721 990.059 640.727 990.059 639.5C990.059 638.273 989.066 637.279 987.842 637.279C986.618 637.279 985.626 638.273 985.626 639.5C985.626 640.727 986.618 641.721 987.842 641.721Z" fill="#29EDFF"/>
<path d="M1017.1 641.721C1018.32 641.721 1019.32 640.727 1019.32 639.5C1019.32 638.273 1018.32 637.279 1017.1 637.279C1015.87 637.279 1014.88 638.273 1014.88 639.5C1014.88 640.727 1015.87 641.721 1017.1 641.721Z" fill="#29EDFF"/>
<path d="M1046.35 641.721C1047.58 641.721 1048.57 640.727 1048.57 639.5C1048.57 638.273 1047.58 637.279 1046.35 637.279C1045.13 637.279 1044.14 638.273 1044.14 639.5C1044.14 640.727 1045.13 641.721 1046.35 641.721Z" fill="#29EDFF"/>
<path d="M1075.76 641.721C1076.98 641.721 1077.98 640.727 1077.98 639.5C1077.98 638.273 1076.98 637.279 1075.76 637.279C1074.53 637.279 1073.54 638.273 1073.54 639.5C1073.54 640.727 1074.53 641.721 1075.76 641.721Z" fill="#29EDFF"/>
<path d="M1105.02 641.721C1106.24 641.721 1107.23 640.727 1107.23 639.5C1107.23 638.273 1106.24 637.279 1105.02 637.279C1103.79 637.279 1102.8 638.273 1102.8 639.5C1102.8 640.727 1103.79 641.721 1105.02 641.721Z" fill="#29EDFF"/>
<path d="M1134.27 641.721C1135.5 641.721 1136.49 640.727 1136.49 639.5C1136.49 638.273 1135.5 637.279 1134.27 637.279C1133.05 637.279 1132.06 638.273 1132.06 639.5C1132.06 640.727 1133.05 641.721 1134.27 641.721Z" fill="#29EDFF"/>
<path d="M1163.53 641.721C1164.75 641.721 1165.74 640.727 1165.74 639.5C1165.74 638.273 1164.75 637.279 1163.53 637.279C1162.3 637.279 1161.31 638.273 1161.31 639.5C1161.31 640.727 1162.3 641.721 1163.53 641.721Z" fill="#29EDFF"/>
<path d="M1192.78 641.721C1194.01 641.721 1195 640.727 1195 639.5C1195 638.273 1194.01 637.279 1192.78 637.279C1191.56 637.279 1190.57 638.273 1190.57 639.5C1190.57 640.727 1191.56 641.721 1192.78 641.721Z" fill="#29EDFF"/>
<path d="M607.216 672.517C608.44 672.517 609.433 671.523 609.433 670.297C609.433 669.07 608.44 668.076 607.216 668.076C605.992 668.076 605 669.07 605 670.297C605 671.523 605.992 672.517 607.216 672.517Z" fill="#29EDFF"/>
<path d="M636.473 672.517C637.697 672.517 638.689 671.523 638.689 670.297C638.689 669.07 637.697 668.076 636.473 668.076C635.249 668.076 634.256 669.07 634.256 670.297C634.256 671.523 635.249 672.517 636.473 672.517Z" fill="#29EDFF"/>
<path d="M665.876 672.517C667.101 672.517 668.093 671.523 668.093 670.297C668.093 669.07 667.101 668.076 665.876 668.076C664.652 668.076 663.66 669.07 663.66 670.297C663.66 671.523 664.652 672.517 665.876 672.517Z" fill="#29EDFF"/>
<path d="M695.133 672.517C696.357 672.517 697.349 671.523 697.349 670.297C697.349 669.07 696.357 668.076 695.133 668.076C693.909 668.076 692.917 669.07 692.917 670.297C692.917 671.523 693.909 672.517 695.133 672.517Z" fill="#29EDFF"/>
<path d="M724.389 672.517C725.613 672.517 726.605 671.523 726.605 670.297C726.605 669.07 725.613 668.076 724.389 668.076C723.165 668.076 722.172 669.07 722.172 670.297C722.172 671.523 723.165 672.517 724.389 672.517Z" fill="#29EDFF"/>
<path d="M753.645 672.517C754.869 672.517 755.862 671.523 755.862 670.297C755.862 669.07 754.869 668.076 753.645 668.076C752.421 668.076 751.429 669.07 751.429 670.297C751.429 671.523 752.421 672.517 753.645 672.517Z" fill="#29EDFF"/>
<path d="M782.901 672.517C784.125 672.517 785.117 671.523 785.117 670.297C785.117 669.07 784.125 668.076 782.901 668.076C781.677 668.076 780.685 669.07 780.685 670.297C780.685 671.523 781.677 672.517 782.901 672.517Z" fill="#29EDFF"/>
<path d="M812.158 672.517C813.382 672.517 814.374 671.523 814.374 670.297C814.374 669.07 813.382 668.076 812.158 668.076C810.933 668.076 809.941 669.07 809.941 670.297C809.941 671.523 810.933 672.517 812.158 672.517Z" fill="#29EDFF"/>
<path d="M841.414 672.517C842.638 672.517 843.63 671.523 843.63 670.297C843.63 669.07 842.638 668.076 841.414 668.076C840.19 668.076 839.197 669.07 839.197 670.297C839.197 671.523 840.19 672.517 841.414 672.517Z" fill="#29EDFF"/>
<path d="M870.818 672.517C872.042 672.517 873.034 671.523 873.034 670.297C873.034 669.07 872.042 668.076 870.818 668.076C869.594 668.076 868.601 669.07 868.601 670.297C868.601 671.523 869.594 672.517 870.818 672.517Z" fill="#29EDFF"/>
<path d="M900.074 672.517C901.298 672.517 902.29 671.523 902.29 670.297C902.29 669.07 901.298 668.076 900.074 668.076C898.85 668.076 897.858 669.07 897.858 670.297C897.858 671.523 898.85 672.517 900.074 672.517Z" fill="#29EDFF"/>
<path d="M929.33 672.517C930.554 672.517 931.546 671.523 931.546 670.297C931.546 669.07 930.554 668.076 929.33 668.076C928.106 668.076 927.114 669.07 927.114 670.297C927.114 671.523 928.106 672.517 929.33 672.517Z" fill="#29EDFF"/>
<path d="M958.586 672.517C959.81 672.517 960.803 671.523 960.803 670.297C960.803 669.07 959.81 668.076 958.586 668.076C957.362 668.076 956.37 669.07 956.37 670.297C956.37 671.523 957.362 672.517 958.586 672.517Z" fill="#29EDFF"/>
<path d="M987.842 672.517C989.066 672.517 990.059 671.523 990.059 670.297C990.059 669.07 989.066 668.076 987.842 668.076C986.618 668.076 985.626 669.07 985.626 670.297C985.626 671.523 986.618 672.517 987.842 672.517Z" fill="#29EDFF"/>
<path d="M1017.1 672.517C1018.32 672.517 1019.32 671.523 1019.32 670.297C1019.32 669.07 1018.32 668.076 1017.1 668.076C1015.87 668.076 1014.88 669.07 1014.88 670.297C1014.88 671.523 1015.87 672.517 1017.1 672.517Z" fill="#29EDFF"/>
<path d="M1046.35 672.517C1047.58 672.517 1048.57 671.523 1048.57 670.297C1048.57 669.07 1047.58 668.076 1046.35 668.076C1045.13 668.076 1044.14 669.07 1044.14 670.297C1044.14 671.523 1045.13 672.517 1046.35 672.517Z" fill="#29EDFF"/>
<path d="M1075.76 672.517C1076.98 672.517 1077.98 671.523 1077.98 670.297C1077.98 669.07 1076.98 668.076 1075.76 668.076C1074.53 668.076 1073.54 669.07 1073.54 670.297C1073.54 671.523 1074.53 672.517 1075.76 672.517Z" fill="#29EDFF"/>
<path d="M1105.02 672.517C1106.24 672.517 1107.23 671.523 1107.23 670.297C1107.23 669.07 1106.24 668.076 1105.02 668.076C1103.79 668.076 1102.8 669.07 1102.8 670.297C1102.8 671.523 1103.79 672.517 1105.02 672.517Z" fill="#29EDFF"/>
<path d="M1134.27 672.517C1135.5 672.517 1136.49 671.523 1136.49 670.297C1136.49 669.07 1135.5 668.076 1134.27 668.076C1133.05 668.076 1132.06 669.07 1132.06 670.297C1132.06 671.523 1133.05 672.517 1134.27 672.517Z" fill="#29EDFF"/>
<path d="M1163.53 672.517C1164.75 672.517 1165.74 671.523 1165.74 670.297C1165.74 669.07 1164.75 668.076 1163.53 668.076C1162.3 668.076 1161.31 669.07 1161.31 670.297C1161.31 671.523 1162.3 672.517 1163.53 672.517Z" fill="#29EDFF"/>
<path d="M1192.78 672.517C1194.01 672.517 1195 671.523 1195 670.297C1195 669.07 1194.01 668.076 1192.78 668.076C1191.56 668.076 1190.57 669.07 1190.57 670.297C1190.57 671.523 1191.56 672.517 1192.78 672.517Z" fill="#29EDFF"/>
<path d="M607.216 703.314C608.44 703.314 609.433 702.32 609.433 701.093C609.433 699.867 608.44 698.872 607.216 698.872C605.992 698.872 605 699.867 605 701.093C605 702.32 605.992 703.314 607.216 703.314Z" fill="#29EDFF"/>
<path d="M636.473 703.314C637.697 703.314 638.689 702.32 638.689 701.093C638.689 699.867 637.697 698.872 636.473 698.872C635.249 698.872 634.256 699.867 634.256 701.093C634.256 702.32 635.249 703.314 636.473 703.314Z" fill="#29EDFF"/>
<path d="M665.876 703.314C667.101 703.314 668.093 702.32 668.093 701.093C668.093 699.867 667.101 698.872 665.876 698.872C664.652 698.872 663.66 699.867 663.66 701.093C663.66 702.32 664.652 703.314 665.876 703.314Z" fill="#29EDFF"/>
<path d="M695.133 703.314C696.357 703.314 697.349 702.32 697.349 701.093C697.349 699.867 696.357 698.872 695.133 698.872C693.909 698.872 692.917 699.867 692.917 701.093C692.917 702.32 693.909 703.314 695.133 703.314Z" fill="#29EDFF"/>
<path d="M724.389 703.314C725.613 703.314 726.605 702.32 726.605 701.093C726.605 699.867 725.613 698.872 724.389 698.872C723.165 698.872 722.172 699.867 722.172 701.093C722.172 702.32 723.165 703.314 724.389 703.314Z" fill="#29EDFF"/>
<path d="M753.645 703.314C754.869 703.314 755.862 702.32 755.862 701.093C755.862 699.867 754.869 698.872 753.645 698.872C752.421 698.872 751.429 699.867 751.429 701.093C751.429 702.32 752.421 703.314 753.645 703.314Z" fill="#29EDFF"/>
<path d="M782.901 703.314C784.125 703.314 785.117 702.32 785.117 701.093C785.117 699.867 784.125 698.872 782.901 698.872C781.677 698.872 780.685 699.867 780.685 701.093C780.685 702.32 781.677 703.314 782.901 703.314Z" fill="#29EDFF"/>
<path d="M812.158 703.314C813.382 703.314 814.374 702.32 814.374 701.093C814.374 699.867 813.382 698.872 812.158 698.872C810.933 698.872 809.941 699.867 809.941 701.093C809.941 702.32 810.933 703.314 812.158 703.314Z" fill="#29EDFF"/>
<path d="M841.414 703.314C842.638 703.314 843.63 702.32 843.63 701.093C843.63 699.867 842.638 698.872 841.414 698.872C840.19 698.872 839.197 699.867 839.197 701.093C839.197 702.32 840.19 703.314 841.414 703.314Z" fill="#29EDFF"/>
<path d="M870.818 703.314C872.042 703.314 873.034 702.32 873.034 701.093C873.034 699.867 872.042 698.872 870.818 698.872C869.594 698.872 868.601 699.867 868.601 701.093C868.601 702.32 869.594 703.314 870.818 703.314Z" fill="#29EDFF"/>
<path d="M900.074 703.314C901.298 703.314 902.29 702.32 902.29 701.093C902.29 699.867 901.298 698.872 900.074 698.872C898.85 698.872 897.858 699.867 897.858 701.093C897.858 702.32 898.85 703.314 900.074 703.314Z" fill="#29EDFF"/>
<path d="M929.33 703.314C930.554 703.314 931.546 702.32 931.546 701.093C931.546 699.867 930.554 698.872 929.33 698.872C928.106 698.872 927.114 699.867 927.114 701.093C927.114 702.32 928.106 703.314 929.33 703.314Z" fill="#29EDFF"/>
<path d="M958.586 703.314C959.81 703.314 960.803 702.32 960.803 701.093C960.803 699.867 959.81 698.872 958.586 698.872C957.362 698.872 956.37 699.867 956.37 701.093C956.37 702.32 957.362 703.314 958.586 703.314Z" fill="#29EDFF"/>
<path d="M987.842 703.314C989.066 703.314 990.059 702.32 990.059 701.093C990.059 699.867 989.066 698.872 987.842 698.872C986.618 698.872 985.626 699.867 985.626 701.093C985.626 702.32 986.618 703.314 987.842 703.314Z" fill="#29EDFF"/>
<path d="M1017.1 703.314C1018.32 703.314 1019.32 702.32 1019.32 701.093C1019.32 699.867 1018.32 698.872 1017.1 698.872C1015.87 698.872 1014.88 699.867 1014.88 701.093C1014.88 702.32 1015.87 703.314 1017.1 703.314Z" fill="#29EDFF"/>
<path d="M1046.35 703.314C1047.58 703.314 1048.57 702.32 1048.57 701.093C1048.57 699.867 1047.58 698.872 1046.35 698.872C1045.13 698.872 1044.14 699.867 1044.14 701.093C1044.14 702.32 1045.13 703.314 1046.35 703.314Z" fill="#29EDFF"/>
<path d="M1075.76 703.314C1076.98 703.314 1077.98 702.32 1077.98 701.093C1077.98 699.867 1076.98 698.872 1075.76 698.872C1074.53 698.872 1073.54 699.867 1073.54 701.093C1073.54 702.32 1074.53 703.314 1075.76 703.314Z" fill="#29EDFF"/>
<path d="M1105.02 703.314C1106.24 703.314 1107.23 702.32 1107.23 701.093C1107.23 699.867 1106.24 698.872 1105.02 698.872C1103.79 698.872 1102.8 699.867 1102.8 701.093C1102.8 702.32 1103.79 703.314 1105.02 703.314Z" fill="#29EDFF"/>
<path d="M1134.27 703.314C1135.5 703.314 1136.49 702.32 1136.49 701.093C1136.49 699.867 1135.5 698.872 1134.27 698.872C1133.05 698.872 1132.06 699.867 1132.06 701.093C1132.06 702.32 1133.05 703.314 1134.27 703.314Z" fill="#29EDFF"/>
<path d="M1163.53 703.314C1164.75 703.314 1165.74 702.32 1165.74 701.093C1165.74 699.867 1164.75 698.872 1163.53 698.872C1162.3 698.872 1161.31 699.867 1161.31 701.093C1161.31 702.32 1162.3 703.314 1163.53 703.314Z" fill="#29EDFF"/>
<path d="M1192.78 703.314C1194.01 703.314 1195 702.32 1195 701.093C1195 699.867 1194.01 698.872 1192.78 698.872C1191.56 698.872 1190.57 699.867 1190.57 701.093C1190.57 702.32 1191.56 703.314 1192.78 703.314Z" fill="#29EDFF"/>
<path d="M607.216 734.259C608.44 734.259 609.433 733.264 609.433 732.038C609.433 730.811 608.44 729.817 607.216 729.817C605.992 729.817 605 730.811 605 732.038C605 733.264 605.992 734.259 607.216 734.259Z" fill="#29EDFF"/>
<path d="M636.473 734.259C637.697 734.259 638.689 733.264 638.689 732.038C638.689 730.811 637.697 729.817 636.473 729.817C635.249 729.817 634.256 730.811 634.256 732.038C634.256 733.264 635.249 734.259 636.473 734.259Z" fill="#29EDFF"/>
<path d="M665.876 734.259C667.101 734.259 668.093 733.264 668.093 732.038C668.093 730.811 667.101 729.817 665.876 729.817C664.652 729.817 663.66 730.811 663.66 732.038C663.66 733.264 664.652 734.259 665.876 734.259Z" fill="#29EDFF"/>
<path d="M695.133 734.259C696.357 734.259 697.349 733.264 697.349 732.038C697.349 730.811 696.357 729.817 695.133 729.817C693.909 729.817 692.917 730.811 692.917 732.038C692.917 733.264 693.909 734.259 695.133 734.259Z" fill="#29EDFF"/>
<path d="M724.389 734.259C725.613 734.259 726.605 733.264 726.605 732.038C726.605 730.811 725.613 729.817 724.389 729.817C723.165 729.817 722.172 730.811 722.172 732.038C722.172 733.264 723.165 734.259 724.389 734.259Z" fill="#29EDFF"/>
<path d="M753.645 734.259C754.869 734.259 755.862 733.264 755.862 732.038C755.862 730.811 754.869 729.817 753.645 729.817C752.421 729.817 751.429 730.811 751.429 732.038C751.429 733.264 752.421 734.259 753.645 734.259Z" fill="#29EDFF"/>
<path d="M782.901 734.259C784.125 734.259 785.117 733.264 785.117 732.038C785.117 730.811 784.125 729.817 782.901 729.817C781.677 729.817 780.685 730.811 780.685 732.038C780.685 733.264 781.677 734.259 782.901 734.259Z" fill="#29EDFF"/>
<path d="M812.158 734.259C813.382 734.259 814.374 733.264 814.374 732.038C814.374 730.811 813.382 729.817 812.158 729.817C810.933 729.817 809.941 730.811 809.941 732.038C809.941 733.264 810.933 734.259 812.158 734.259Z" fill="#29EDFF"/>
<path d="M841.414 734.259C842.638 734.259 843.63 733.264 843.63 732.038C843.63 730.811 842.638 729.817 841.414 729.817C840.19 729.817 839.197 730.811 839.197 732.038C839.197 733.264 840.19 734.259 841.414 734.259Z" fill="#29EDFF"/>
<path d="M870.818 734.259C872.042 734.259 873.034 733.264 873.034 732.038C873.034 730.811 872.042 729.817 870.818 729.817C869.594 729.817 868.601 730.811 868.601 732.038C868.601 733.264 869.594 734.259 870.818 734.259Z" fill="#29EDFF"/>
<path d="M900.074 734.259C901.298 734.259 902.29 733.264 902.29 732.038C902.29 730.811 901.298 729.817 900.074 729.817C898.85 729.817 897.858 730.811 897.858 732.038C897.858 733.264 898.85 734.259 900.074 734.259Z" fill="#29EDFF"/>
<path d="M929.33 734.259C930.554 734.259 931.546 733.264 931.546 732.038C931.546 730.811 930.554 729.817 929.33 729.817C928.106 729.817 927.114 730.811 927.114 732.038C927.114 733.264 928.106 734.259 929.33 734.259Z" fill="#29EDFF"/>
<path d="M958.586 734.259C959.81 734.259 960.803 733.264 960.803 732.038C960.803 730.811 959.81 729.817 958.586 729.817C957.362 729.817 956.37 730.811 956.37 732.038C956.37 733.264 957.362 734.259 958.586 734.259Z" fill="#29EDFF"/>
<path d="M987.842 734.259C989.066 734.259 990.059 733.264 990.059 732.038C990.059 730.811 989.066 729.817 987.842 729.817C986.618 729.817 985.626 730.811 985.626 732.038C985.626 733.264 986.618 734.259 987.842 734.259Z" fill="#29EDFF"/>
<path d="M1017.1 734.259C1018.32 734.259 1019.32 733.264 1019.32 732.038C1019.32 730.811 1018.32 729.817 1017.1 729.817C1015.87 729.817 1014.88 730.811 1014.88 732.038C1014.88 733.264 1015.87 734.259 1017.1 734.259Z" fill="#29EDFF"/>
<path d="M1046.35 734.259C1047.58 734.259 1048.57 733.264 1048.57 732.038C1048.57 730.811 1047.58 729.817 1046.35 729.817C1045.13 729.817 1044.14 730.811 1044.14 732.038C1044.14 733.264 1045.13 734.259 1046.35 734.259Z" fill="#29EDFF"/>
<path d="M1075.76 734.259C1076.98 734.259 1077.98 733.264 1077.98 732.038C1077.98 730.811 1076.98 729.817 1075.76 729.817C1074.53 729.817 1073.54 730.811 1073.54 732.038C1073.54 733.264 1074.53 734.259 1075.76 734.259Z" fill="#29EDFF"/>
<path d="M1105.02 734.259C1106.24 734.259 1107.23 733.264 1107.23 732.038C1107.23 730.811 1106.24 729.817 1105.02 729.817C1103.79 729.817 1102.8 730.811 1102.8 732.038C1102.8 733.264 1103.79 734.259 1105.02 734.259Z" fill="#29EDFF"/>
<path d="M1134.27 734.259C1135.5 734.259 1136.49 733.264 1136.49 732.038C1136.49 730.811 1135.5 729.817 1134.27 729.817C1133.05 729.817 1132.06 730.811 1132.06 732.038C1132.06 733.264 1133.05 734.259 1134.27 734.259Z" fill="#29EDFF"/>
<path d="M1163.53 734.259C1164.75 734.259 1165.74 733.264 1165.74 732.038C1165.74 730.811 1164.75 729.817 1163.53 729.817C1162.3 729.817 1161.31 730.811 1161.31 732.038C1161.31 733.264 1162.3 734.259 1163.53 734.259Z" fill="#29EDFF"/>
<path d="M1192.78 734.259C1194.01 734.259 1195 733.264 1195 732.038C1195 730.811 1194.01 729.817 1192.78 729.817C1191.56 729.817 1190.57 730.811 1190.57 732.038C1190.57 733.264 1191.56 734.259 1192.78 734.259Z" fill="#29EDFF"/>
<path d="M607.216 765.055C608.44 765.055 609.433 764.061 609.433 762.834C609.433 761.608 608.44 760.614 607.216 760.614C605.992 760.614 605 761.608 605 762.834C605 764.061 605.992 765.055 607.216 765.055Z" fill="#29EDFF"/>
<path d="M636.473 765.055C637.697 765.055 638.689 764.061 638.689 762.834C638.689 761.608 637.697 760.614 636.473 760.614C635.249 760.614 634.256 761.608 634.256 762.834C634.256 764.061 635.249 765.055 636.473 765.055Z" fill="#29EDFF"/>
<path d="M665.876 765.055C667.101 765.055 668.093 764.061 668.093 762.834C668.093 761.608 667.101 760.614 665.876 760.614C664.652 760.614 663.66 761.608 663.66 762.834C663.66 764.061 664.652 765.055 665.876 765.055Z" fill="#29EDFF"/>
<path d="M695.133 765.055C696.357 765.055 697.349 764.061 697.349 762.834C697.349 761.608 696.357 760.614 695.133 760.614C693.909 760.614 692.917 761.608 692.917 762.834C692.917 764.061 693.909 765.055 695.133 765.055Z" fill="#29EDFF"/>
<path d="M724.389 765.055C725.613 765.055 726.605 764.061 726.605 762.834C726.605 761.608 725.613 760.614 724.389 760.614C723.165 760.614 722.172 761.608 722.172 762.834C722.172 764.061 723.165 765.055 724.389 765.055Z" fill="#29EDFF"/>
<path d="M753.645 765.055C754.869 765.055 755.862 764.061 755.862 762.834C755.862 761.608 754.869 760.614 753.645 760.614C752.421 760.614 751.429 761.608 751.429 762.834C751.429 764.061 752.421 765.055 753.645 765.055Z" fill="#29EDFF"/>
<path d="M782.901 765.055C784.125 765.055 785.117 764.061 785.117 762.834C785.117 761.608 784.125 760.614 782.901 760.614C781.677 760.614 780.685 761.608 780.685 762.834C780.685 764.061 781.677 765.055 782.901 765.055Z" fill="#29EDFF"/>
<path d="M812.158 765.055C813.382 765.055 814.374 764.061 814.374 762.834C814.374 761.608 813.382 760.614 812.158 760.614C810.933 760.614 809.941 761.608 809.941 762.834C809.941 764.061 810.933 765.055 812.158 765.055Z" fill="#29EDFF"/>
<path d="M841.414 765.055C842.638 765.055 843.63 764.061 843.63 762.834C843.63 761.608 842.638 760.614 841.414 760.614C840.19 760.614 839.197 761.608 839.197 762.834C839.197 764.061 840.19 765.055 841.414 765.055Z" fill="#29EDFF"/>
<path d="M870.818 765.055C872.042 765.055 873.034 764.061 873.034 762.834C873.034 761.608 872.042 760.614 870.818 760.614C869.594 760.614 868.601 761.608 868.601 762.834C868.601 764.061 869.594 765.055 870.818 765.055Z" fill="#29EDFF"/>
<path d="M900.074 765.055C901.298 765.055 902.29 764.061 902.29 762.834C902.29 761.608 901.298 760.614 900.074 760.614C898.85 760.614 897.858 761.608 897.858 762.834C897.858 764.061 898.85 765.055 900.074 765.055Z" fill="#29EDFF"/>
<path d="M929.33 765.055C930.554 765.055 931.546 764.061 931.546 762.834C931.546 761.608 930.554 760.614 929.33 760.614C928.106 760.614 927.114 761.608 927.114 762.834C927.114 764.061 928.106 765.055 929.33 765.055Z" fill="#29EDFF"/>
<path d="M958.586 765.055C959.81 765.055 960.803 764.061 960.803 762.834C960.803 761.608 959.81 760.614 958.586 760.614C957.362 760.614 956.37 761.608 956.37 762.834C956.37 764.061 957.362 765.055 958.586 765.055Z" fill="#29EDFF"/>
<path d="M987.842 765.055C989.066 765.055 990.059 764.061 990.059 762.834C990.059 761.608 989.066 760.614 987.842 760.614C986.618 760.614 985.626 761.608 985.626 762.834C985.626 764.061 986.618 765.055 987.842 765.055Z" fill="#29EDFF"/>
<path d="M1017.1 765.055C1018.32 765.055 1019.32 764.061 1019.32 762.834C1019.32 761.608 1018.32 760.614 1017.1 760.614C1015.87 760.614 1014.88 761.608 1014.88 762.834C1014.88 764.061 1015.87 765.055 1017.1 765.055Z" fill="#29EDFF"/>
<path d="M1046.35 765.055C1047.58 765.055 1048.57 764.061 1048.57 762.834C1048.57 761.608 1047.58 760.614 1046.35 760.614C1045.13 760.614 1044.14 761.608 1044.14 762.834C1044.14 764.061 1045.13 765.055 1046.35 765.055Z" fill="#29EDFF"/>
<path d="M1075.76 765.055C1076.98 765.055 1077.98 764.061 1077.98 762.834C1077.98 761.608 1076.98 760.614 1075.76 760.614C1074.53 760.614 1073.54 761.608 1073.54 762.834C1073.54 764.061 1074.53 765.055 1075.76 765.055Z" fill="#29EDFF"/>
<path d="M1105.02 765.055C1106.24 765.055 1107.23 764.061 1107.23 762.834C1107.23 761.608 1106.24 760.614 1105.02 760.614C1103.79 760.614 1102.8 761.608 1102.8 762.834C1102.8 764.061 1103.79 765.055 1105.02 765.055Z" fill="#29EDFF"/>
<path d="M1134.27 765.055C1135.5 765.055 1136.49 764.061 1136.49 762.834C1136.49 761.608 1135.5 760.614 1134.27 760.614C1133.05 760.614 1132.06 761.608 1132.06 762.834C1132.06 764.061 1133.05 765.055 1134.27 765.055Z" fill="#29EDFF"/>
<path d="M1163.53 765.055C1164.75 765.055 1165.74 764.061 1165.74 762.834C1165.74 761.608 1164.75 760.614 1163.53 760.614C1162.3 760.614 1161.31 761.608 1161.31 762.834C1161.31 764.061 1162.3 765.055 1163.53 765.055Z" fill="#29EDFF"/>
<path d="M1192.78 765.055C1194.01 765.055 1195 764.061 1195 762.834C1195 761.608 1194.01 760.614 1192.78 760.614C1191.56 760.614 1190.57 761.608 1190.57 762.834C1190.57 764.061 1191.56 765.055 1192.78 765.055Z" fill="#29EDFF"/>
<path d="M607.216 795.852C608.44 795.852 609.433 794.858 609.433 793.631C609.433 792.404 608.44 791.41 607.216 791.41C605.992 791.41 605 792.404 605 793.631C605 794.858 605.992 795.852 607.216 795.852Z" fill="#29EDFF"/>
<path d="M636.473 795.852C637.697 795.852 638.689 794.858 638.689 793.631C638.689 792.404 637.697 791.41 636.473 791.41C635.249 791.41 634.256 792.404 634.256 793.631C634.256 794.858 635.249 795.852 636.473 795.852Z" fill="#29EDFF"/>
<path d="M665.876 795.852C667.101 795.852 668.093 794.858 668.093 793.631C668.093 792.404 667.101 791.41 665.876 791.41C664.652 791.41 663.66 792.404 663.66 793.631C663.66 794.858 664.652 795.852 665.876 795.852Z" fill="#29EDFF"/>
<path d="M695.133 795.852C696.357 795.852 697.349 794.858 697.349 793.631C697.349 792.404 696.357 791.41 695.133 791.41C693.909 791.41 692.917 792.404 692.917 793.631C692.917 794.858 693.909 795.852 695.133 795.852Z" fill="#29EDFF"/>
<path d="M724.389 795.852C725.613 795.852 726.605 794.858 726.605 793.631C726.605 792.404 725.613 791.41 724.389 791.41C723.165 791.41 722.172 792.404 722.172 793.631C722.172 794.858 723.165 795.852 724.389 795.852Z" fill="#29EDFF"/>
<path d="M753.645 795.852C754.869 795.852 755.862 794.858 755.862 793.631C755.862 792.404 754.869 791.41 753.645 791.41C752.421 791.41 751.429 792.404 751.429 793.631C751.429 794.858 752.421 795.852 753.645 795.852Z" fill="#29EDFF"/>
<path d="M782.901 795.852C784.125 795.852 785.117 794.858 785.117 793.631C785.117 792.404 784.125 791.41 782.901 791.41C781.677 791.41 780.685 792.404 780.685 793.631C780.685 794.858 781.677 795.852 782.901 795.852Z" fill="#29EDFF"/>
<path d="M812.158 795.852C813.382 795.852 814.374 794.858 814.374 793.631C814.374 792.404 813.382 791.41 812.158 791.41C810.933 791.41 809.941 792.404 809.941 793.631C809.941 794.858 810.933 795.852 812.158 795.852Z" fill="#29EDFF"/>
<path d="M841.414 795.852C842.638 795.852 843.63 794.858 843.63 793.631C843.63 792.404 842.638 791.41 841.414 791.41C840.19 791.41 839.197 792.404 839.197 793.631C839.197 794.858 840.19 795.852 841.414 795.852Z" fill="#29EDFF"/>
<path d="M870.818 795.852C872.042 795.852 873.034 794.858 873.034 793.631C873.034 792.404 872.042 791.41 870.818 791.41C869.594 791.41 868.601 792.404 868.601 793.631C868.601 794.858 869.594 795.852 870.818 795.852Z" fill="#29EDFF"/>
<path d="M900.074 795.852C901.298 795.852 902.29 794.858 902.29 793.631C902.29 792.404 901.298 791.41 900.074 791.41C898.85 791.41 897.858 792.404 897.858 793.631C897.858 794.858 898.85 795.852 900.074 795.852Z" fill="#29EDFF"/>
<path d="M929.33 795.852C930.554 795.852 931.546 794.858 931.546 793.631C931.546 792.404 930.554 791.41 929.33 791.41C928.106 791.41 927.114 792.404 927.114 793.631C927.114 794.858 928.106 795.852 929.33 795.852Z" fill="#29EDFF"/>
<path d="M958.586 795.852C959.81 795.852 960.803 794.858 960.803 793.631C960.803 792.404 959.81 791.41 958.586 791.41C957.362 791.41 956.37 792.404 956.37 793.631C956.37 794.858 957.362 795.852 958.586 795.852Z" fill="#29EDFF"/>
<path d="M987.842 795.852C989.066 795.852 990.059 794.858 990.059 793.631C990.059 792.404 989.066 791.41 987.842 791.41C986.618 791.41 985.626 792.404 985.626 793.631C985.626 794.858 986.618 795.852 987.842 795.852Z" fill="#29EDFF"/>
<path d="M1017.1 795.852C1018.32 795.852 1019.32 794.858 1019.32 793.631C1019.32 792.404 1018.32 791.41 1017.1 791.41C1015.87 791.41 1014.88 792.404 1014.88 793.631C1014.88 794.858 1015.87 795.852 1017.1 795.852Z" fill="#29EDFF"/>
<path d="M1046.35 795.852C1047.58 795.852 1048.57 794.858 1048.57 793.631C1048.57 792.404 1047.58 791.41 1046.35 791.41C1045.13 791.41 1044.14 792.404 1044.14 793.631C1044.14 794.858 1045.13 795.852 1046.35 795.852Z" fill="#29EDFF"/>
<path d="M1075.76 795.852C1076.98 795.852 1077.98 794.858 1077.98 793.631C1077.98 792.404 1076.98 791.41 1075.76 791.41C1074.53 791.41 1073.54 792.404 1073.54 793.631C1073.54 794.858 1074.53 795.852 1075.76 795.852Z" fill="#29EDFF"/>
<path d="M1105.02 795.852C1106.24 795.852 1107.23 794.858 1107.23 793.631C1107.23 792.404 1106.24 791.41 1105.02 791.41C1103.79 791.41 1102.8 792.404 1102.8 793.631C1102.8 794.858 1103.79 795.852 1105.02 795.852Z" fill="#29EDFF"/>
<path d="M1134.27 795.852C1135.5 795.852 1136.49 794.858 1136.49 793.631C1136.49 792.404 1135.5 791.41 1134.27 791.41C1133.05 791.41 1132.06 792.404 1132.06 793.631C1132.06 794.858 1133.05 795.852 1134.27 795.852Z" fill="#29EDFF"/>
<path d="M1163.53 795.852C1164.75 795.852 1165.74 794.858 1165.74 793.631C1165.74 792.404 1164.75 791.41 1163.53 791.41C1162.3 791.41 1161.31 792.404 1161.31 793.631C1161.31 794.858 1162.3 795.852 1163.53 795.852Z" fill="#29EDFF"/>
<path d="M1192.78 795.852C1194.01 795.852 1195 794.858 1195 793.631C1195 792.404 1194.01 791.41 1192.78 791.41C1191.56 791.41 1190.57 792.404 1190.57 793.631C1190.57 794.858 1191.56 795.852 1192.78 795.852Z" fill="#29EDFF"/>
</g>
<path opacity="0.15" d="M31.7367 261.068L29.4287 261.968L31.7147 262.923C41.6022 267.051 51.1277 270.446 60.2032 273.107L50.8738 289.477C43.7025 282.482 35.984 275.858 27.8074 269.606L25.9259 268.167L26.2071 270.519C27.2736 279.439 29.1793 289.371 31.8293 300.4H12.9629C15.2341 290.67 17.0436 280.839 18.3912 270.732L18.7128 268.321L16.7883 269.809C9.53697 275.417 1.91872 281.951 -6.06661 289.5L-15.4981 273.105C-6.42413 270.444 3.09961 267.05 12.9853 262.923L15.2601 261.973L12.9665 261.07C3.45286 257.322 -6.06436 254.033 -15.4968 251.292L-6.06468 234.896C1.18295 241.704 8.80093 248.232 16.7894 254.392L18.7121 255.875L18.3912 253.468C17.0449 243.371 15.2374 233.548 12.9684 224H31.8322C29.2753 234.749 27.3697 244.671 26.2082 253.672L25.9035 256.034L27.8031 254.598C35.7169 248.614 43.3456 241.987 50.8656 234.898L60.2968 251.292C50.8642 254.033 41.344 257.321 31.7367 261.068Z" stroke="#29EDFF" stroke-width="2"/>
<mask id="mask1" style="mask-type:alpha" maskUnits="userSpaceOnUse" x="609" y="1" width="831" height="369">
<rect x="609" y="1" width="831" height="369" fill="#C4C4C4"/>
</mask>
<g mask="url(#mask1)">
<g opacity="0.16">
<path d="M732.511 106.128L730.957 106.999L732.51 107.872C756.298 121.241 776.835 132.781 797.884 144.608L799.471 145.5C820.941 157.564 843.04 169.981 869.745 184.99V245.917L651 123.319V91.1814L869.745 -31.4167V29.17L732.511 106.128Z" stroke="#29EDFF" stroke-width="2"/>
<path d="M1451.23 106.251L1452.79 107.123L1451.24 107.995C1427.45 121.364 1406.91 132.904 1385.86 144.731L1384.27 145.623C1362.8 157.687 1340.7 170.105 1314 185.113V246.04L1532.75 123.442V91.305L1314 -31.2932V29.2935L1451.23 106.251Z" stroke="#29EDFF" stroke-width="2"/>
<path d="M1213.85 -163.655L1263.34 -138.393L1030.27 317.655L980.766 292.393L1213.85 -163.655Z" stroke="#29EDFF" stroke-width="2"/>
</g>
</g>
</svg>
