<?xml version="1.0" encoding="UTF-8"?> <!-- Generator: Adobe Illustrator 22.0.1, SVG Export Plug-In . SVG Version: 6.00 Build 0) --> <svg xmlns="http://www.w3.org/2000/svg" xmlns:xlink="http://www.w3.org/1999/xlink" id="Layer_1" x="0px" y="0px" viewBox="0 0 28.1 25.3" style="enable-background:new 0 0 28.1 25.3;" xml:space="preserve"> <style type="text/css"> .st0{fill:#FABA5A;} </style> <g> <path class="st0" d="M0.1,7.3C0,6.9,0,6.5,0,6.2V24c0,0.7,0.6,1.3,1.3,1.3H22c0.7,0,1.3-0.6,1.3-1.3v-1.5H3 C2.2,20.7,0.8,14.1,0.1,7.3z"></path> <path class="st0" d="M5,20h23.1c0,0-4.3-8.8-4.8-13.8c-0.1-0.7-0.6-1.3-1.3-1.3H1.3C0.6,4.9,0,5.5,0,6.2c0,0.4,0.1,0.7,0.1,1.1 C0.8,11.5,5,20,5,20z"></path> <path class="st0" d="M23.3,1.3C23.3,0.6,22.7,0,22,0h-3.8v1c0.3,0.2,0.5,0.5,0.5,0.9c0,0.6-0.5,1.1-1.1,1.1c-0.6,0-1.1-0.5-1.1-1.1 c0-0.4,0.2-0.7,0.5-0.9V0H6.2v1c0.3,0.2,0.5,0.5,0.5,0.9C6.8,2.5,6.3,3,5.7,3C5.1,3,4.6,2.5,4.6,1.9c0-0.4,0.2-0.7,0.5-0.9V0H1.3 C0.6,0,0,0.6,0,1.3v2.5h23.3V1.3z"></path> </g> </svg> 