<?xml version="1.0" encoding="utf-8"?>
<!-- Generator: Adobe Illustrator 22.0.1, SVG Export Plug-In . SVG Version: 6.00 Build 0)  -->
<svg version="1.1" id="Layer_1" xmlns="http://www.w3.org/2000/svg" xmlns:xlink="http://www.w3.org/1999/xlink" x="0px" y="0px"
	 viewBox="0 0 70 70" style="enable-background:new 0 0 70 70;" xml:space="preserve">
<style type="text/css">
	.st0{fill:#29EDFF;}
	.st1{fill:#F2F2F2;}
</style>
<circle class="st0" cx="35" cy="35" r="35"/>
<g>
	<path class="st1" d="M24.9,27.5c3.4,0,6.2-2.8,6.2-6.2c0-3.4-2.8-6.2-6.2-6.2c-3.4,0-6.2,2.8-6.2,6.2
		C18.7,24.7,21.4,27.5,24.9,27.5z M24.9,17.1c2.3,0,4.2,1.9,4.2,4.2s-1.9,4.2-4.2,4.2s-4.2-1.9-4.2-4.2S22.5,17.1,24.9,17.1z"/>
	<path class="st1" d="M45,27.5c3.4,0,6.2-2.8,6.2-6.2c0-3.4-2.8-6.2-6.2-6.2s-6.2,2.8-6.2,6.2C38.8,24.7,41.5,27.5,45,27.5z
		 M45,17.1c2.3,0,4.2,1.9,4.2,4.2s-1.9,4.2-4.2,4.2s-4.2-1.9-4.2-4.2S42.6,17.1,45,17.1z"/>
	<rect x="30.7" y="46.6" transform="matrix(0.4081 -0.9129 0.9129 0.4081 -22.135 61.0041)" class="st1" width="10.6" height="2"/>
	<polygon class="st1" points="39.3,45.8 41.1,47.6 39.3,49.3 40.7,50.8 44,47.6 40.7,44.4 	"/>
	<polygon class="st1" points="31.2,44.4 28,47.6 31.2,50.8 32.6,49.3 30.8,47.6 32.6,45.8 	"/>
	<path class="st1" d="M58.1,43l0-1.6c-0.1-3.3-0.5-6.7-0.5-7.2c0-1-0.3-2.1-0.9-3.2c-0.7-1.1-1.7-2-3-2.5l-4.7-1.7l-3.7,6.9h-0.1
		l-3.7-6.8l-4.7,1.7c-0.6,0.2-1.2,0.5-1.7,1c-0.5-0.4-1.1-0.8-1.7-1l-4.7-1.7l-3.7,6.8h-0.1l-3.6-6.8l-4.7,1.7
		c-1.3,0.5-2.4,1.4-3,2.5c-0.6,1.1-0.9,2.2-0.9,3.1l0,0.2c-0.3,2.6-0.4,5-0.5,7.1V43h13.7c-0.6,1.4-1,2.9-1,4.6
		c0,6.2,5.1,11.3,11.3,11.3s11.3-5.1,11.3-11.3c0-1.6-0.4-3.2-1-4.6H58.1z M37.3,30.4l3.1-1.1l3.4,6.4h2.5l3.4-6.4l3.1,1.1
		c0.8,0.3,1.6,0.9,2,1.6c0.4,0.8,0.7,1.6,0.7,2.3l0,0.1c0,0,0.4,3.4,0.5,6.6H45.2c0-0.1-0.1-0.1-0.1-0.2c-0.2-0.3-0.4-0.5-0.6-0.7
		c-0.1-0.1-0.2-0.2-0.3-0.3c-0.2-0.2-0.4-0.4-0.6-0.6c-0.1-0.1-0.2-0.2-0.3-0.3c-0.2-0.2-0.5-0.4-0.8-0.6c-0.1-0.1-0.3-0.2-0.4-0.3
		c-0.3-0.2-0.5-0.3-0.8-0.5c-0.1-0.1-0.3-0.1-0.4-0.2c-0.2-0.1-0.5-0.2-0.7-0.3C40,37,39.8,37,39.7,36.9c-0.2-0.1-0.5-0.2-0.8-0.2
		c-0.1,0-0.3-0.1-0.4-0.1c-0.3-0.1-0.6-0.1-0.9-0.2c-0.1,0-0.2,0-0.4-0.1c-0.4,0-0.8-0.1-1.3-0.1c0,0-0.1,0-0.1,0v-4.9
		C36.3,30.9,36.8,30.6,37.3,30.4z M26.8,41H13.9c0.1-1.9,0.2-4,0.5-6.4c0-0.2,0-0.3,0-0.4c0-0.7,0.2-1.4,0.7-2.2
		c0.4-0.7,1.1-1.3,2-1.6l3.1-1.1l3.4,6.4h2.5l3.4-6.4l3.1,1.1c0.4,0.1,0.8,0.4,1.2,0.7v5.3c-0.1,0-0.2,0.1-0.4,0.1
		c-0.2,0-0.3,0.1-0.4,0.1c-0.2,0.1-0.5,0.1-0.7,0.2C32.1,37,32,37,31.8,37.1c-0.2,0.1-0.5,0.2-0.7,0.3c-0.2,0.1-0.3,0.1-0.5,0.2
		c-0.3,0.1-0.5,0.3-0.8,0.5c-0.2,0.1-0.3,0.2-0.5,0.3c-0.3,0.2-0.5,0.4-0.7,0.6c-0.1,0.1-0.2,0.2-0.3,0.3c-0.2,0.2-0.4,0.4-0.6,0.6
		c-0.1,0.1-0.2,0.2-0.3,0.3c-0.2,0.2-0.4,0.5-0.6,0.8C26.9,40.9,26.8,41,26.8,41z M36,56.9c-5.1,0-9.3-4.2-9.3-9.3
		c0-1.9,0.6-3.6,1.5-5c0.2-0.3,0.4-0.6,0.7-0.9c0,0,0,0,0,0c0.2-0.3,0.5-0.5,0.7-0.7c0.1-0.1,0.2-0.1,0.2-0.2
		c0.2-0.2,0.4-0.3,0.6-0.5c0.1-0.1,0.2-0.1,0.3-0.2c0.2-0.2,0.5-0.3,0.7-0.5c0.1,0,0.1-0.1,0.2-0.1c0.3-0.2,0.6-0.3,0.9-0.4
		c0.1,0,0.2-0.1,0.3-0.1c0.2-0.1,0.5-0.2,0.7-0.2c0.1,0,0.2-0.1,0.3-0.1c0.3-0.1,0.5-0.1,0.8-0.1c0.1,0,0.2,0,0.3,0
		c0.4,0,0.7-0.1,1.1-0.1c0.4,0,0.7,0,1.1,0.1c0.1,0,0.2,0,0.3,0c0.3,0,0.5,0.1,0.8,0.1c0.1,0,0.2,0.1,0.3,0.1
		c0.2,0.1,0.5,0.1,0.7,0.2c0.1,0,0.2,0.1,0.3,0.1c0.3,0.1,0.6,0.3,0.9,0.4c0.1,0,0.1,0.1,0.1,0.1c0.3,0.1,0.5,0.3,0.7,0.5
		c0.1,0.1,0.2,0.1,0.3,0.2c0.2,0.1,0.4,0.3,0.6,0.5c0.1,0.1,0.2,0.1,0.2,0.2c0.2,0.2,0.5,0.5,0.7,0.7c0,0,0,0,0,0
		c0.2,0.3,0.5,0.6,0.7,0.9c0.9,1.5,1.5,3.2,1.5,5.1C45.3,52.7,41.1,56.9,36,56.9z"/>
</g>
</svg>
