<?xml version="1.0" encoding="UTF-8"?> <!-- Generator: Adobe Illustrator 22.0.1, SVG Export Plug-In . SVG Version: 6.00 Build 0) --> <svg xmlns="http://www.w3.org/2000/svg" xmlns:xlink="http://www.w3.org/1999/xlink" id="Layer_1" x="0px" y="0px" viewBox="0 0 25.6 25.6" style="enable-background:new 0 0 25.6 25.6;" xml:space="preserve"> <style type="text/css"> .st0{fill:#FABA5A;} </style> <path class="st0" d="M12.8,0C5.7,0,0,5.7,0,12.8c0,7.1,5.7,12.8,12.8,12.8c7.1,0,12.8-5.7,12.8-12.8C25.6,5.7,19.8,0,12.8,0z M17.4,18.2l-0.2,0.2c-0.4,0.3-1,0.3-1.4-0.1L11,14.2c-0.2-0.2-0.3-0.4-0.3-0.5c0-0.1-0.1-0.3-0.1-0.4l0.4-7.6 c0-0.6,0.4-1.1,0.9-1.1h0.3c0.5,0,0.9,0.5,0.9,1.1l0.3,7.1l3.9,4.2C17.7,17.2,17.8,17.8,17.4,18.2z"></path> </svg> 