<?xml version="1.0" encoding="UTF-8"?> <!-- Generator: Adobe Illustrator 22.0.1, SVG Export Plug-In . SVG Version: 6.00 Build 0) --> <svg xmlns="http://www.w3.org/2000/svg" xmlns:xlink="http://www.w3.org/1999/xlink" id="Layer_1" x="0px" y="0px" viewBox="0 0 16.7 24.7" style="enable-background:new 0 0 16.7 24.7;" xml:space="preserve"> <style type="text/css"> .st0{fill:#FABA5A;} </style> <path class="st0" d="M8.4,0C3.7,0,0,3.7,0,8.4c0,0.1,0,0.2,0,0.3c0,0.9,0.2,1.7,0.5,2.5c1.8,5.9,7.9,13.5,7.9,13.5s6.1-7.7,7.9-13.5 c0.3-0.8,0.4-1.6,0.5-2.5c0-0.1,0-0.2,0-0.3C16.7,3.7,13,0,8.4,0z M8.4,12.1c-2.1,0-3.7-1.7-3.7-3.7s1.7-3.7,3.7-3.7 s3.7,1.7,3.7,3.7S10.4,12.1,8.4,12.1z"></path> </svg> 